<?xml version="1.0" encoding="iso-8859-1"?>
<!-- Generator: Adobe Illustrator 19.0.0, SVG Export Plug-In . SVG Version: 6.00 Build 0)  -->
<svg version="1.1" id="Layer_1" xmlns="http://www.w3.org/2000/svg" xmlns:xlink="http://www.w3.org/1999/xlink" x="0px" y="0px"
	 viewBox="0 0 512 512" style="enable-background:new 0 0 512 512;" xml:space="preserve">
<rect x="88.277" style="fill:#1D71B8;" width="15.68" height="15.994"/>
<rect x="296.042" y="495.966" style="fill:#FFFFFF;" width="15.994" height="15.68"/>
<rect x="32.137" y="63.973" style="fill:#F9B233;" width="447.83" height="327.881"/>
<rect x="32.137" y="63.973" style="fill:#FAC15C;" width="223.915" height="327.881"/>
<path style="fill:#1D71B8;" d="M354.158,319.879h-16.129c-23.65,15.184-51.784,23.991-81.977,23.991
	c-30.193,0-58.327-8.807-81.977-23.991h-16.129c-82.733,0-149.801,67.068-149.801,149.802v42.126l495.814,0.192v-42.318
	C503.959,386.947,436.89,319.879,354.158,319.879z"/>
<g>
	<path style="fill:#FFFFFF;" d="M399.998,143.946c26.5,0,47.982,21.482,47.982,47.982s-21.483,47.982-47.982,47.982"/>
	<path style="fill:#FFFFFF;" d="M112.106,239.909c-26.5,0-47.982-21.482-47.982-47.982s21.482-47.982,47.982-47.982"/>
</g>
<circle style="fill:#1D71B8;" cx="256.048" cy="191.929" r="151.946"/>
<circle style="fill:#FAC15C;" cx="376.007" cy="71.972" r="31.988"/>
<path style="fill:#77AAD4;" d="M256.052,343.87c-83.915,0-151.942-68.027-151.942-151.942S172.137,39.985,256.052,39.985"/>
<circle style="fill:#FFFFFF;" cx="256.048" cy="191.929" r="119.959"/>
<g>
	<path style="fill:#F9B233;" d="M487.965,399.849c-26.501,0-47.982,21.482-47.982,47.982s21.482,47.982,47.982,47.982h15.994
		C503.959,495.813,508.709,418.376,487.965,399.849"/>
	<path style="fill:#F9B233;" d="M392.002,327.877l-47.982-7.997c-44.907,25.93-87.967,23.991-87.967,23.991v39.985
		C256.052,383.855,330.597,388.812,392.002,327.877z"/>
</g>
<path style="fill:#77AAD4;" d="M232.062,383.855v23.991h103.961v103.961H8.146v-42.234c0-66.723,43.654-123.25,103.959-142.578
	C112.105,326.995,157.09,380.856,232.062,383.855z"/>
<path style="fill:#F9B233;" d="M112.106,327.877l55.979-7.997c52.481,27.489,87.967,23.991,87.967,23.991v39.985
	C256.052,383.855,173.511,388.812,112.106,327.877z"/>
<rect x="8.146" y="446.21" style="fill:#FAC15C;" width="71.973" height="49.6"/>
<g>
	<path style="fill:#1D1D1B;" d="M256.052,319.722c-70.466,0-127.795-57.329-127.795-127.795S185.586,64.134,256.052,64.134
		s127.795,57.328,127.795,127.794S326.518,319.722,256.052,319.722z M256.052,79.813c-61.82,0-112.115,50.295-112.115,112.114
		c0,61.82,50.295,112.115,112.115,112.115s112.115-50.295,112.115-112.115S317.873,79.813,256.052,79.813z"/>
	<polygon style="fill:#1D1D1B;" points="112.649,511.854 112.217,439.991 144.095,439.991 144.095,455.671 127.991,455.671 
		128.329,511.76 	"/>
</g>
<g>
	<rect x="296.042" y="431.993" style="fill:#FFFFFF;" width="15.994" height="15.68"/>
	<rect x="296.042" y="463.98" style="fill:#FFFFFF;" width="15.994" height="15.68"/>
	<rect x="368.011" y="64.129" style="fill:#FFFFFF;" width="15.994" height="15.68"/>
</g>
<g>
	
		<rect x="184.231" y="129.319" transform="matrix(-0.7071 -0.7071 0.7071 -0.7071 220.4483 395.1906)" style="fill:#1D1D1B;" width="15.679" height="45.24"/>
	
		<rect x="220.223" y="98.424" transform="matrix(-0.7071 -0.7071 0.7071 -0.7071 267.7518 454.7751)" style="fill:#1D1D1B;" width="15.679" height="147.021"/>
	
		<rect x="260.202" y="178.968" transform="matrix(-0.7071 -0.7071 0.7071 -0.7071 319.0307 524.0104)" style="fill:#1D1D1B;" width="15.679" height="33.928"/>
	
		<rect x="288.195" y="167.372" transform="matrix(-0.7071 -0.7071 0.7071 -0.7071 347.0294 591.5786)" style="fill:#1D1D1B;" width="15.679" height="113.09"/>
</g>
<g>
	<rect x="56.285" y="255.901" style="fill:#FFFFFF;" width="15.68" height="15.994"/>
	<rect x="56.285" y="279.891" style="fill:#FFFFFF;" width="15.68" height="15.994"/>
	<rect x="56.285" y="303.881" style="fill:#FFFFFF;" width="15.68" height="15.994"/>
</g>
<g>
	<polygon style="fill:#1D1D1B;" points="376.007,455.671 392.111,455.671 391.773,511.76 407.452,511.854 407.885,439.991 
		376.007,439.991 	"/>
	<path style="fill:#1D1D1B;" d="M511.899,471.16l0.001-0.156c-0.021-30.798-8.854-59.571-24.092-83.95V56.136h-75.266
		c-6.137-14.102-20.199-23.991-36.534-23.991c-16.18,0-30.128,9.705-36.355,23.595c-25.108-15.463-53.791-23.595-83.6-23.595
		c-30.843,0-59.666,8.793-84.113,23.991h-59.833v15.68h38.694c-19.777,17.352-35.249,39.496-44.58,64.602
		c-0.761,0.08-1.517,0.179-2.267,0.29V23.991h-15.68v117.47c-18.89,8.957-31.988,28.208-31.988,50.465
		c0,28.792,21.912,52.558,49.935,55.509c9.373,25.22,24.94,47.452,44.845,64.838c-11.183,0.578-22.25,2.301-32.997,5.184
		c-2.812,0.754-5.644,1.598-8.415,2.51c-27.616,9.081-51.405,25.155-69.677,45.884V71.816h40.142v-15.68h-55.82v330.801
		C8.962,411.573,0.306,440.521,0.306,471.07L0.1,511.767l15.68,0.079l0.042-8.194h72.138v-63.661H19.397
		c1.226-5.553,2.773-10.996,4.628-16.308h32.103v-15.68H30.565c2.73-5.585,5.8-10.985,9.22-16.151h0.191v-0.299
		c16.613-24.961,41.028-44.603,70.558-55.281c13.066,10.445,59.983,45.358,113.686,54.361v25.053h103.961v96.121h15.68V400.006
		H239.9v-8.961c5.345,0.425,10.73,0.65,16.151,0.65c52.797,0,102.432-20.342,140.019-57.304c31.38,9.95,58.121,30.428,76.057,57.268
		v0.193h0.128c0.141,0.211,0.28,0.424,0.419,0.637c-23.368,6.666-40.532,28.197-40.532,53.675c0,30.78,25.041,55.821,55.821,55.821
		h7.657l-0.187,9.972L511.862,512L511.899,471.16z M72.279,455.671v32.302H15.901l0.045-8.907l40.067,0.594l0.233-15.677
		l-40.028-0.594c0.138-2.589,0.343-5.162,0.617-7.719h55.445V455.671z M376.007,47.825c13.315,0,24.149,10.833,24.149,24.149
		c0,13.315-10.833,24.148-24.149,24.148c-13.316,0-24.149-10.833-24.149-24.148C351.859,58.657,362.692,47.825,376.007,47.825z
		 M71.965,191.927c0-18.276,12.281-33.728,29.021-38.563c-3.073,12.356-4.715,25.27-4.715,38.563
		c0,13.293,1.642,26.208,4.715,38.563C84.246,225.655,71.965,210.204,71.965,191.927z M111.95,191.927
		c0-79.459,64.644-144.103,144.103-144.103c28.784,0,56.394,8.416,80.132,24.341c0.105,21.807,17.822,39.525,39.629,39.63
		c15.925,23.737,24.342,51.347,24.342,80.132c0,79.459-64.645,144.103-144.103,144.103S111.95,271.386,111.95,191.927z
		 M411.16,153.377c16.719,4.849,28.981,20.29,28.981,38.551c0,18.276-12.281,33.728-29.022,38.563
		c3.073-12.354,4.716-25.27,4.716-38.563C415.836,178.789,414.25,165.869,411.16,153.377z M248.213,351.515v24.325
		c-42.428-1.764-82.272-17.836-113.982-45.907c8.267-1.46,16.682-2.216,25.147-2.216h12.564
		C194.303,341.622,220.328,350.162,248.213,351.515z M263.892,375.841v-24.325c27.885-1.354,53.91-9.894,76.273-23.796h12.665
		c8.549,0,16.923,0.756,25.065,2.197C346.183,357.998,306.333,374.075,263.892,375.841z M361.066,312.252
		c19.892-17.383,35.449-39.606,44.82-64.815c28.023-2.951,49.935-26.717,49.935-55.509c0-28.772-21.882-52.525-49.878-55.502
		c-3.611-9.746-8.19-19.149-13.702-28.098c13.89-6.227,23.595-20.174,23.595-36.355c0-0.052-0.004-0.105-0.004-0.157h56.297v294.212
		C444.653,334.873,405.207,314.515,361.066,312.252z M487.965,486.306c-22.134,0-40.142-18.007-40.142-40.142
		c0-19.72,14.297-36.151,33.066-39.504c5.28,10.447,9.316,21.621,11.919,33.332h-20.837v15.68h23.416
		c0.54,5.017,0.827,10.11,0.833,15.268l-0.296,15.368h-7.959V486.306z"/>
</g>
<g>
</g>
<g>
</g>
<g>
</g>
<g>
</g>
<g>
</g>
<g>
</g>
<g>
</g>
<g>
</g>
<g>
</g>
<g>
</g>
<g>
</g>
<g>
</g>
<g>
</g>
<g>
</g>
<g>
</g>
</svg>
